# xmcd
#
# Track frame offsets: 
#        300
#        13280
#        38026
#        60000
#        90425
#        134595
#        151996
#        160922
#        173521
#        198778
#        219683
#        248074
#        260925
#        275650
#        312022
#
# Disc length: 4380 seconds
#
# Revision: 7
# Processed by: cddbd v1.5.2PL0 Copyright (c) Steve Scherf et al.
# Submitted via: ExactAudioCopy v1.0b3
#
DISCID=ca11180f
DTITLE=Various Artist - Beethoven Edition cd 57 - Piano Variations   
DTITLE=III  - Misc.Works I  - Sonatas WoO 47  No.1 and 2
DYEAR=1961
DGENRE=Piano
TTITLE0=Brendel, Alfred - piano - 6 Easy Variations on a Swiss Air in 
TTITLE0=F major WoO 64
TTITLE1=Brendel, Alfred - piano - 9 Variations on Paisello's Air 'Quan
TTITLE1=t'e piu bello' in A major WoO 69
TTITLE2=Brendel, Alfred - piano - 6 Variations on an Original Theme in
TTITLE2=G major Wo O77
TTITLE3=Brendel, Alfred - piano - 8 Variations on Gretry's Air 'Une fi
TTITLE3=evre brulante' in C major WoO 72
TTITLE4=Brendel, Alfred - piano - Rondo in G  Op.51 No.2
TTITLE5=Brendel, Alfred - piano - Allegretto in C minor WoO53
TTITLE6=Brendel, Alfred - piano - 6 Ecossaises  WoO 83
TTITLE7=Brendel, Alfred - piano - Bagatelle in A minor WoO 59 'Für Eli
TTITLE7=se'
TTITLE8=Brendel, Alfred - piano - Polonaise in C major Op.89
TTITLE9=Staerk, Ulrich - piano - Piano Sonata (Kurfürstensonate) in E 
TTITLE9=flat WoO 47  No.1 - I. Allegro cantabile
TTITLE10=Staerk, Ulrich - piano - Piano Sonata (Kurfürstensonate) in E
TTITLE10=flat WoO 47  No.1 - II. Andante
TTITLE11=Staerk, Ulrich - piano - Piano Sonata (Kurfürstensonate) in E
TTITLE11=flat WoO 47  No.1 - III. Rondo, vivace
TTITLE12=Staerk, Ulrich - piano - Piano Sonata (Kurfürstensonate) in F
TTITLE12=minor WoO 47  No.2 - I. Larghetto maestoso
TTITLE13=Staerk, Ulrich - piano - Piano Sonata (Kurfürstensonate) in F
TTITLE13=minor WoO 47  No.2 - II. Andante
TTITLE14=Staerk, Ulrich - piano - Piano Sonata (Kurfürstensonate) in F
TTITLE14=minor WoO 47  No.2 - III. Presto
EXTD=YEAR: 1961
EXTT0=
EXTT1=
EXTT2=
EXTT3=
EXTT4=
EXTT5=
EXTT6=
EXTT7=
EXTT8=
EXTT9=
EXTT10=
EXTT11=
EXTT12=
EXTT13=
EXTT14=
PLAYORDER=
